<svg width="12" height="12" viewBox="0 0 12 12" fill="none" xmlns="http://www.w3.org/2000/svg">
<path d="M0.375 6.75C0.16875 6.75 0 6.91875 0 7.125V7.875C0 8.08125 0.16875 8.25 0.375 8.25H3V6.75H0.375ZM11.8359 2.46094L9.54141 0.164062C9.43594 0.0585938 9.29297 0 9.14297 0H9V3H12V2.85703C12 2.70938 11.9414 2.56641 11.8359 2.46094ZM8.25 3.1875V0H3.5625C3.25078 0 3 0.250781 3 0.5625V6.75H6V5.22188C6 4.88672 6.40547 4.72031 6.64219 4.95703L8.88281 7.21875C9.0375 7.37578 9.0375 7.62656 8.88281 7.78125L6.63984 10.0406C6.40312 10.2773 5.99766 10.1109 5.99766 9.77578V8.25H3V11.4375C3 11.7492 3.25078 12 3.5625 12H11.4375C11.7492 12 12 11.7492 12 11.4375V3.75H8.8125C8.50313 3.75 8.25 3.49688 8.25 3.1875Z" fill="#F1ECEC"/>
</svg>
